<svg width="22" height="22" viewBox="0 0 22 22" fill="none" xmlns="http://www.w3.org/2000/svg">
<path d="M13.7146 21.3271L7.25 19.0615L1.63125 21.2365C1.42986 21.317 1.23331 21.3424 1.04158 21.3126C0.849861 21.2828 0.673847 21.2171 0.513542 21.1156C0.353236 21.0141 0.227569 20.8784 0.136542 20.7084C0.0455138 20.5384 0 20.3419 0 20.1187V3.17187C0 2.91007 0.0757222 2.67847 0.227167 2.47708C0.378611 2.27569 0.584833 2.12465 0.845833 2.02396L6.46458 0.120833C6.58542 0.0805554 6.71149 0.0503473 6.84279 0.0302084C6.9741 0.0100696 7.10983 0 7.25 0C7.39017 0 7.52631 0.0100696 7.65842 0.0302084C7.79053 0.0503473 7.91619 0.0805554 8.03542 0.120833L14.5 2.38646L20.1188 0.211458C20.3201 0.130903 20.5167 0.10593 20.7084 0.136542C20.9001 0.167153 21.0762 0.232403 21.2365 0.332292C21.3968 0.432181 21.5228 0.568319 21.6147 0.740708C21.7065 0.913097 21.7516 1.10925 21.75 1.32917V18.276C21.75 18.5378 21.6747 18.7694 21.524 18.9708C21.3734 19.1722 21.1668 19.3233 20.9042 19.424L15.2854 21.3271C15.1646 21.3674 15.0389 21.3976 14.9084 21.4177C14.7779 21.4378 14.6418 21.4479 14.5 21.4479C14.3582 21.4479 14.2225 21.4378 14.0928 21.4177C13.9631 21.3976 13.837 21.3674 13.7146 21.3271ZM13.2917 18.6385V4.50104L8.45833 2.80937V16.9469L13.2917 18.6385ZM15.7083 18.6385L19.3333 17.4302V3.11146L15.7083 4.50104V18.6385ZM2.41667 18.3365L6.04167 16.9469V2.80937L2.41667 4.01771V18.3365Z" fill="#FB8328"/>
</svg>
