<svg width="26" height="27" viewBox="0 0 26 27" fill="none" xmlns="http://www.w3.org/2000/svg">
<path d="M13.9529 0.0739174C13.0429 0.307747 12.0232 1.0482 11.565 1.82114C11.1778 2.47066 11.0164 3.04225 11.0035 3.84116L10.9906 4.54914L9.15778 5.18568C8.151 5.54292 7.29266 5.82871 7.25394 5.82871C7.21522 5.82871 7.10551 5.71829 7.01516 5.57539C6.77637 5.21166 6.26007 4.72452 5.85995 4.4777C3.90448 3.29556 1.36818 4.04901 0.393675 6.108C0.0968053 6.73804 0 7.15374 0 7.82924C0 9.56997 1.23911 11.1743 2.8848 11.5575L3.21393 11.6355L3.25266 12.3564C3.27202 12.7461 3.29783 13.7724 3.31074 14.6363L3.33656 16.1951L3.03969 16.3055C1.92965 16.7018 0.935784 17.8839 0.677637 19.1115C0.555017 19.6961 0.555017 20.0728 0.677637 20.6768C0.968053 22.0928 1.88448 23.1256 3.27202 23.5997C4.31106 23.9634 5.62761 23.7881 6.5634 23.171C7.02161 22.8657 7.54436 22.3137 7.79605 21.872L7.9703 21.5667L9.8096 22.1253L11.6489 22.6904L11.6876 23.3659C11.7457 24.4116 12.1458 25.269 12.888 25.964C14.4369 27.3929 16.7925 27.341 18.2639 25.8406C18.9996 25.0936 19.3611 24.1973 19.3611 23.1256C19.3611 22.1578 19.0448 21.2744 18.4704 20.6314C18.2962 20.4365 18.2058 20.2871 18.2381 20.2352C18.2639 20.1897 18.7802 19.4428 19.3804 18.5724C20.2452 17.3188 20.4904 17.0005 20.5743 17.0395C20.6389 17.059 20.8583 17.1369 21.0713 17.2084C22.9558 17.8254 25.1436 16.7083 25.8147 14.7727C26.0148 14.2076 26.06 13.1553 25.9115 12.5838C25.7244 11.8433 25.4469 11.3627 24.879 10.7911C23.685 9.58296 22.1684 9.28418 20.5808 9.9467C20.5034 9.97917 20.1549 9.55698 19.1481 8.21246C18.4124 7.23818 17.8122 6.41978 17.8122 6.40029C17.8122 6.3808 17.9348 6.17945 18.0897 5.94562C18.5221 5.2961 18.6834 4.71802 18.6834 3.81518C18.677 3.21112 18.6511 2.99028 18.5285 2.64604C18.1155 1.4704 17.2249 0.574053 16.0697 0.171347C15.5469 -0.00402451 14.4692 -0.0559864 13.9529 0.0739174ZM15.8954 1.58731C16.4375 1.84712 16.8635 2.27581 17.1216 2.8279C17.3023 3.21762 17.3281 3.32804 17.3281 3.84766C17.3217 4.6011 17.1603 5.04278 16.6828 5.55591C16.0826 6.20543 15.2307 6.50421 14.4369 6.34833C12.4879 5.96511 11.6812 3.65929 12.9848 2.22384C13.5656 1.58731 14.1465 1.334 14.979 1.36647C15.3598 1.38596 15.5598 1.43142 15.8954 1.58731ZM4.93707 5.53642C6.828 6.46524 6.78928 9.20624 4.87899 10.0961C4.53049 10.2585 4.41432 10.278 3.83994 10.278C3.27847 10.278 3.1494 10.252 2.82026 10.1026C2.34269 9.87525 1.81994 9.34913 1.58115 8.849C1.41336 8.49825 1.394 8.39433 1.38754 7.80976C1.38754 7.23818 1.4069 7.11477 1.55534 6.7965C1.84575 6.17296 2.30397 5.73777 2.96224 5.45848C3.27202 5.32857 3.40755 5.30909 3.93675 5.32208C4.46595 5.34156 4.60793 5.37404 4.93707 5.53642ZM11.6295 6.01057C11.6876 6.108 11.8554 6.32235 11.9974 6.49122L12.2685 6.7965L11.4617 8.0306L10.655 9.26469L10.2485 9.14778C10.0226 9.08283 9.35784 8.88797 8.7641 8.7126L7.68634 8.40083V7.77728V7.15374L9.53855 6.49772C10.5582 6.14048 11.423 5.8417 11.4553 5.8352C11.494 5.8352 11.5715 5.90665 11.6295 6.01057ZM18.1284 9.12829L19.3675 10.7716L19.0642 11.1873C18.9028 11.4211 18.748 11.6095 18.7286 11.6095C18.7028 11.616 18.0574 11.4341 17.2894 11.2133L15.8954 10.8106L15.8567 9.69988C15.7857 7.85523 15.7922 7.64088 15.9341 7.60191C15.9987 7.58892 16.1923 7.50448 16.3665 7.42004C16.657 7.28364 16.6892 7.28364 16.786 7.38107C16.8441 7.43953 17.4508 8.22545 18.1284 9.12829ZM14.0755 7.66037L14.4369 7.73182L14.4756 9.03736C14.4885 9.75833 14.5014 10.3494 14.4885 10.3624C14.4627 10.3949 12.1716 9.71936 12.1136 9.66091C12.0813 9.63492 12.3717 9.14128 12.7525 8.56321C13.3462 7.66037 13.4688 7.51747 13.585 7.54995C13.656 7.56944 13.8754 7.6214 14.0755 7.66037ZM8.55113 10.0831C9.21586 10.278 9.77733 10.4533 9.79669 10.4728C9.81605 10.4923 9.51273 10.9859 9.11906 11.577L8.4156 12.6487L7.57017 11.5315L6.72474 10.4144L6.94416 10.1286C7.06678 9.96618 7.16359 9.8103 7.16359 9.78432C7.16359 9.68689 7.29912 9.71287 8.55113 10.0831ZM12.9074 11.3562C13.7786 11.6095 14.5014 11.8303 14.5143 11.8433C14.5466 11.8758 14.7015 17.3123 14.7079 18.5724C14.7144 19.2154 14.7015 19.3388 14.6176 19.3388C14.5595 19.3388 14.3465 19.4103 14.1336 19.4947L13.7463 19.6571L11.5263 16.7342L9.29976 13.8114L10.029 12.6942C10.4292 12.0771 10.8551 11.4211 10.9777 11.2393C11.1003 11.0509 11.2294 10.895 11.2617 10.895C11.3004 10.895 12.0361 11.1028 12.9074 11.3562ZM23.1881 11.2068C23.7818 11.4926 24.0981 11.7978 24.3756 12.3759C24.6079 12.8436 24.6208 12.902 24.6208 13.4866C24.6208 14.0517 24.6014 14.1491 24.4143 14.5453C24.0529 15.3118 23.4333 15.7989 22.6073 15.9613C22.0587 16.0717 21.5811 16.0003 21.0455 15.7275C19.303 14.8506 19.1868 12.4214 20.8325 11.3562C21.523 10.9145 22.4459 10.856 23.1881 11.2068ZM6.58921 12.4993C7.0926 13.1748 7.53145 13.7529 7.56372 13.7984C7.60244 13.8438 7.34429 14.292 6.80864 15.1039L5.98902 16.338L5.7825 16.2536C5.66634 16.2016 5.38237 16.1302 5.15004 16.0912L4.7241 16.0133L4.68537 15.0974C4.66601 14.5908 4.6402 13.6035 4.62729 12.902L4.61438 11.629L5.06614 11.4666C5.31784 11.3757 5.55017 11.2977 5.58889 11.2912C5.63407 11.2912 6.07937 11.8303 6.58921 12.4993ZM17.212 12.6227L18.3156 12.941L18.3414 13.688C18.3607 14.253 18.4059 14.5194 18.5092 14.7922C18.6705 15.1949 18.9545 15.7015 19.1997 16.0003L19.3611 16.1951L18.2123 17.8514C17.5153 18.8517 17.0248 19.4947 16.9667 19.4882C16.9216 19.4752 16.7021 19.4233 16.4827 19.3648L16.0955 19.2609L16.018 16.0717C15.9212 12.1291 15.9212 12.2395 16.0245 12.272C16.0632 12.2915 16.5989 12.4474 17.212 12.6227ZM9.8096 16.7277C10.5001 17.6436 11.4295 18.8647 11.8619 19.4492L12.6621 20.5015L12.4298 20.8132C12.3072 20.9821 12.1652 21.1835 12.1136 21.2484C12.0297 21.3653 11.9716 21.3588 10.5066 20.9042C9.67407 20.6509 8.84155 20.3976 8.65439 20.3391L8.32525 20.2417V19.8714C8.3188 19.0271 7.96385 18.0528 7.42819 17.4422C7.27976 17.2798 7.16359 17.1175 7.16359 17.0915C7.16359 17.0135 8.46723 15.052 8.51241 15.0585C8.53177 15.0585 9.11906 15.8119 9.8096 16.7277ZM5.21458 17.5072C5.92448 17.7345 6.41496 18.1827 6.75701 18.9296C6.9119 19.2544 6.93771 19.3908 6.93126 19.8909C6.93126 20.6249 6.76992 21.0796 6.32461 21.5667C4.89189 23.145 2.38141 22.4046 1.99419 20.3001C1.66505 18.4944 3.43981 16.9551 5.21458 17.5072ZM16.4246 20.7743C17.4379 21.151 18.051 22.1318 17.9929 23.262C17.8509 25.8341 14.4111 26.5356 13.2817 24.2233C13.0816 23.8141 13.0687 23.7491 13.0687 23.1061C13.0687 22.4825 13.0881 22.3916 13.2559 22.0344C13.8432 20.8392 15.1791 20.3066 16.4246 20.7743Z" fill="#FB8328"/>
</svg>
