<svg width="26" height="24" viewBox="0 0 26 24" fill="none" xmlns="http://www.w3.org/2000/svg">
<path d="M12.8833 23.6666L18.1917 9.66665H20.6417L25.95 23.6666H23.5L22.2458 20.1083H16.5875L15.3333 23.6666H12.8833ZM3.66666 20.1666L2.03332 18.5333L7.92499 12.6416C7.24443 11.9611 6.62688 11.1833 6.07232 10.3083C5.51777 9.43331 5.00755 8.44165 4.54166 7.33331H6.99166C7.38055 8.09165 7.76943 8.75276 8.15832 9.31665C8.54721 9.88054 9.01388 10.4444 9.55832 11.0083C10.2 10.3666 10.8662 9.46715 11.5568 8.30981C12.2475 7.15248 12.7674 6.0492 13.1167 4.99998H0.166656V2.66665H8.33332V0.333313H10.6667V2.66665H18.8333V4.99998H15.45C15.0417 6.39998 14.4292 7.83887 13.6125 9.31665C12.7958 10.7944 11.9889 11.9222 11.1917 12.7L13.9917 15.5583L13.1167 17.95L9.55832 14.3041L3.66666 20.1666ZM17.3167 18.0666H21.5167L19.4167 12.1166L17.3167 18.0666Z" fill="#FB8328"/>
</svg>
