<svg width="22" height="22" viewBox="0 0 22 22" fill="none" xmlns="http://www.w3.org/2000/svg">
<path d="M12.5712 19.085H8.53784C8.48419 19.0868 8.43298 19.1078 8.39346 19.1441C8.35394 19.1804 8.32874 19.2297 8.32242 19.283C8.31859 19.3667 8.31859 19.4505 8.32242 19.5342C8.32242 21.263 10.1933 22.3438 11.6912 21.4793C12.0326 21.2822 12.3161 20.9987 12.5133 20.6572C12.7104 20.3158 12.8141 19.9284 12.8141 19.5342C12.8179 19.4505 12.8179 19.3667 12.8141 19.283C12.8074 19.2248 12.7782 19.1716 12.7329 19.1346C12.6875 19.0976 12.6295 19.0798 12.5712 19.085ZM13.2449 4.71167C13.2434 4.1778 13.3504 3.6492 13.5593 3.15792C13.0381 2.88414 12.4774 2.69302 11.8974 2.59142V1.5675C11.8974 1.39055 11.8626 1.21532 11.7948 1.05184C11.7271 0.888349 11.6279 0.739802 11.5027 0.614675C11.3776 0.489548 11.2291 0.390292 11.0656 0.322574C10.9021 0.254855 10.7269 0.220001 10.5499 0.220001C10.373 0.220001 10.1977 0.254855 10.0343 0.322574C9.87077 0.390292 9.72222 0.489548 9.59709 0.614675C9.47196 0.739802 9.37271 0.888349 9.30499 1.05184C9.23727 1.21532 9.20242 1.39055 9.20242 1.5675V2.60058C8.2707 2.77778 7.39369 3.17154 6.64217 3.75008C5.68255 4.53905 4.9135 5.53454 4.39241 6.66228C3.87132 7.79001 3.61164 9.02087 3.63275 10.263V10.9459C3.63275 13.2376 3.09375 15.4953 2.06067 17.5395C2.01034 17.6471 2.00371 17.7699 2.04218 17.8823C2.08065 17.9946 2.16122 18.0876 2.26692 18.1418C2.32873 18.1713 2.39639 18.1867 2.46492 18.1867H18.6349C18.7113 18.1869 18.7865 18.1676 18.8533 18.1306C18.9202 18.0936 18.9765 18.0402 19.017 17.9755C19.0574 17.9107 19.0807 17.8366 19.0846 17.7604C19.0885 17.6841 19.0728 17.6081 19.0392 17.5395C18.0075 15.4945 17.4691 13.2364 17.4671 10.9459V10.263C17.4701 9.75429 17.4281 9.2463 17.3415 8.745H17.2874C16.757 8.74621 16.2315 8.64277 15.7411 8.44062C15.2507 8.23846 14.805 7.94156 14.4295 7.56691C14.054 7.19226 13.7561 6.74722 13.5528 6.25728C13.3495 5.76733 13.2449 5.24211 13.2449 4.71167Z" fill="black"/>
<path d="M14.5924 4.71166C14.5924 6.78608 16.8382 8.08316 18.6349 7.04549C19.0446 6.80897 19.3848 6.46877 19.6213 6.0591C19.8579 5.64943 19.9824 5.18471 19.9824 4.71166C19.9824 2.63724 17.7366 1.34016 15.9399 2.37783C15.5302 2.61435 15.19 2.95455 14.9535 3.36422C14.717 3.77389 14.5924 4.23861 14.5924 4.71166Z" fill="black"/>
</svg>
