<svg width="36" height="37" viewBox="0 0 36 37" fill="none" xmlns="http://www.w3.org/2000/svg">
<ellipse cx="18" cy="18.5" rx="18" ry="18.5" fill="#FDFBFB"/>
<path d="M18.5 6C19.7008 6 20.8747 6.36656 21.8731 7.05331C22.8715 7.74007 23.6497 8.71619 24.1093 9.85823C24.5688 11.0003 24.689 12.2569 24.4548 13.4693C24.2205 14.6817 23.6423 15.7953 22.7931 16.6694C21.944 17.5435 20.8622 18.1388 19.6845 18.3799C18.5067 18.6211 17.286 18.4973 16.1766 18.0242C15.0672 17.5512 14.1189 16.7501 13.4518 15.7223C12.7847 14.6945 12.4286 13.4861 12.4286 12.25L12.4346 11.9788C12.5025 10.3697 13.1712 8.84972 14.3013 7.73582C15.4313 6.62193 16.9354 6.00009 18.5 6ZM20.9286 21C22.5388 21 24.0831 21.6585 25.2217 22.8306C26.3603 24.0027 27 25.5924 27 27.25V28.5C27 29.163 26.7441 29.7989 26.2887 30.2678C25.8332 30.7366 25.2155 31 24.5714 31H12.4286C11.7845 31 11.1668 30.7366 10.7113 30.2678C10.2559 29.7989 10 29.163 10 28.5V27.25C10 25.5924 10.6397 24.0027 11.7783 22.8306C12.9169 21.6585 14.4612 21 16.0714 21H20.9286Z" fill="#77DD44"/>
</svg>
